<svg height="585" width="2500" xmlns="http://www.w3.org/2000/svg" viewBox="-0.009 0.36 500.004 116.28000000000002"><path d="M255.84.36l-33.188 54.233L189.458.36h-28.325v116.28h30.025V52.783l24.6 42.427h13.781l24.6-42.427v63.857h30.025V.36zM439.92.42h-46.525v116.22h46.525c35.981 0 60.075-23.241 60.075-58.276 0-34.7-24.1-57.947-60.075-57.947zm-.169 88.995h-15.73V27.647h15.73c18.238 0 28.95 11.453 28.95 30.713 0 19.595-10.712 31.054-28.95 31.054zm-107.85-18.125h39.325V44.724h-39.325v-17.27h42.675V.395h-73.13v116.22h74.637V89.386h-44.18zM143.851.419h-30.625v116.22h30.625zM-.009 58.63c0 34.632 24.05 57.829 59.956 57.829h35.944V89.288l-35.776-.006c-18.206 0-28.894-11.434-28.894-30.657 0-19.551 10.688-30.986 28.894-30.986l35.776.011V.472H59.947C24.041.472-.009 23.67-.009 58.632z" stroke-width="5.814"/></svg>